<?xml version="1.0" encoding="UTF-8" standalone="no"?>
<!-- Created with Inkscape (http://www.inkscape.org/) -->

<svg
   xmlns:dc="http://purl.org/dc/elements/1.1/"
   xmlns:cc="http://creativecommons.org/ns#"
   xmlns:rdf="http://www.w3.org/1999/02/22-rdf-syntax-ns#"
   xmlns:svg="http://www.w3.org/2000/svg"
   xmlns="http://www.w3.org/2000/svg"
   xmlns:sodipodi="http://sodipodi.sourceforge.net/DTD/sodipodi-0.dtd"
   xmlns:inkscape="http://www.inkscape.org/namespaces/inkscape"
   width="370"
   height="172"
   id="svg2"
   version="1.1"
   inkscape:version="0.48.4 r9939"
   sodipodi:docname="drawing.svg">
  <defs
     id="defs4" />
  <sodipodi:namedview
     id="base"
     pagecolor="#ffffff"
     bordercolor="#666666"
     borderopacity="1.0"
     inkscape:pageopacity="0.0"
     inkscape:pageshadow="2"
     inkscape:zoom="0.35"
     inkscape:cx="375"
     inkscape:cy="495.71429"
     inkscape:document-units="px"
     inkscape:current-layer="layer1"
     showgrid="false"
     inkscape:window-width="1440"
     inkscape:window-height="2497"
     inkscape:window-x="1072"
     inkscape:window-y="-8"
     inkscape:window-maximized="1" />
  <metadata
     id="metadata7">
    <rdf:RDF>
      <cc:Work
         rdf:about="">
        <dc:format>image/svg+xml</dc:format>
        <dc:type
           rdf:resource="http://purl.org/dc/dcmitype/StillImage" />
        <dc:title></dc:title>
      </cc:Work>
    </rdf:RDF>
  </metadata>
  <g
     inkscape:label="Layer 1"
     inkscape:groupmode="layer"
     id="layer1"
     transform="translate(0,-880.36218)">
    <g
       id="レイヤー_3"
       transform="translate(-76.157138,382.82852)">
	<path
   id="path2988"
   d="m 195.7,638.8 c -1.3,1.5 -8.5,6.6 -16.7,6.6 -15.8,0 -25.2,-12.1 -25.2,-28.2 0,-17 9.5,-28.2 24.1,-28.2 16.7,0 23.5,15.5 22.4,24.8 -0.2,1.9 -0.5,3.2 -1.4,3.4 -0.7,0.1 -33.1,0.5 -33.1,0.5 -0.4,12.3 4.5,22.5 14.2,23.1 7.2,0.4 13.7,-4.9 13.4,-4.7 0,0 2.1,-1 2.7,-0.1 0.7,0.8 0.8,1.3 -0.4,2.8 z m -7,-26.1 c 0.1,-7.3 -0.6,-17.5 -11.2,-17.5 -9.9,0 -11.7,11.4 -11.6,18 l 22.8,-0.5 z"
   inkscape:connector-curvature="0"
   style="fill:#005da6" />

	<path
   id="path2990"
   d="m 250.1,590.6 c 0.3,0.7 3.2,7 3.2,17.7 l 0.3,8.6 -0.5,19.5 c -0.4,15.8 -7.8,31.1 -24.1,31.3 -9.9,0.1 -17.1,-6.6 -20.8,-10.4 0,0 -2.1,-2.3 -0.8,-3.8 1.1,-1.3 2.1,-0.1 2.7,0.4 1.4,1.4 8.7,7 15.2,7 9.9,0 18.4,-5.2 18.4,-19.5 V 635 h -0.2 c -2.8,5.1 -8.5,9.2 -16.8,9.2 -12.9,0 -25,-10 -24.4,-29.1 0.6,-19.1 13.9,-26.2 25.6,-26.2 9.2,0 14.1,5 16.4,9.3 h 0.2 c 0,0 0.7,-6.5 1.1,-7.6 0.3,-0.7 1.2,-1.5 2,-1.6 1.1,0.1 2.1,0.7 2.5,1.6 z m -6.6,20.4 c 0,-9.4 -7.3,-15.4 -14.4,-15.4 -9.5,0 -13.2,7.9 -13.2,21 0,11.5 2.6,21 13.1,21 6.2,0 14.5,-4.7 14.5,-15.9 V 611 z"
   inkscape:connector-curvature="0"
   style="fill:#005da6" />

	<path
   id="path2992"
   d="m 263.8,580.6 c 0,0 0,0 0,0 0,0 0,0 0,0 0,0 0.1,0 0,0 0.1,0 0,0 0,0 z m 9.3,52.7 c -1.1,7.9 -1.8,12.1 -3.3,12 -1.3,0 -2.4,-4.2 -3.9,-12.4 -1.2,-6.3 -3,-39.9 -0.8,-41.9 2,-1.8 6.8,-3.1 8.3,-1.1 1.4,2.1 0.5,37.8 -0.3,43.4 z"
   inkscape:connector-curvature="0"
   style="fill:#005da6" />

	<path
   id="path2994"
   d="m 294.1,611 c 0,0.2 1,14.9 0.8,24.3 -0.1,4.6 -1.1,6.6 -1.3,7.1 -0.6,1.7 -1.7,2.8 -3,2.7 -1.4,0 -2.1,-0.3 -3,-1.5 -0.6,-0.9 -1.7,-3.3 -2.1,-7.9 -1,-10.9 0.3,-31.8 0.3,-31.8 0,-5.6 1.1,-12.2 1.4,-13 0.4,-1.1 0.7,-2.1 2.2,-2.1 1.5,0 1.6,0.4 2.1,1.5 0.7,1.3 1.7,8.5 1.7,8.5 h 0.2 c 2.7,-5.3 8.9,-9.5 17.4,-10 6.7,-0.4 23.7,7 21.7,24.4 -1.2,10.4 -2.2,12.3 -3.4,17.1 -0.6,2.4 -4.8,16.9 -7.1,14.8 -0.8,-0.8 -0.2,-6.7 0.1,-11.9 0.1,-2.4 0.5,-10.9 0.5,-20.8 0,-10.4 -5,-16.7 -14.4,-16.7 -6.9,0 -14.1,5.9 -14.1,15.3"
   inkscape:connector-curvature="0"
   style="fill:#005da6" />

	<path
   id="path2996"
   d="m 377.8,630 c 0,5.6 0.4,11.4 -1.2,13.8 -0.7,1 -2.1,1.4 -3.2,1.4 -1.3,-0.1 -2.7,-1.6 -3.2,-3.1 -0.7,-2.2 -0.7,-6.3 -0.7,-6.3 l 0,0 c -2.5,4.3 -7.1,9.7 -16.4,9.7 -8.1,0 -20,-5.2 -19.3,-23.9 0,0 1.3,-14.9 3,-20.2 1.3,-4.2 3.6,-13.5 5.6,-12.5 1.2,0.6 1.3,4.8 1.3,6.8 -0.1,7.7 0,25 0,25 0,10.5 3.1,17.9 12.1,17.9 6.4,0 13.6,-5.2 13.7,-14.8 0,0 1.5,-24.7 2,-29.3 0.3,-2.6 0.1,-5.9 1.8,-5.7 1.1,0.1 1.2,1.5 1.5,5.3 0.2,2.6 3,33.4 3,35.9 z"
   inkscape:connector-curvature="0"
   style="fill:#005da6" />

	<g
   id="g2998">
		<path
   id="path3000"
   d="m 137.9,541 c -0.5,1.2 -1.6,2.1 -2.8,1.5 -3.3,-1.7 -9.4,-5 -15.9,-4 -14.1,2.3 -16.6,13.8 -16.6,21.5 0.1,10.8 5.7,13.7 17.5,21.9 14,9.7 31.3,15.9 31.3,37 0,16.8 -12.6,26.5 -33.2,26.5 -10.3,0 -27.8,-10.2 -31.6,-15 -0.8,-1 -0.4,-2.2 0.1,-3.2 l 0,0 c 0.5,-1.2 2.7,-0.5 3.9,0.1 3.6,2.1 13,8.1 17.6,9 3.8,0.7 11.8,1.5 13.7,1 7.9,-2.1 15.2,-8.5 15.2,-20.1 0,-10.8 -5.4,-23.2 -18.6,-29.7 -14.4,-7.2 -26.8,-14.6 -27.8,-28.2 -1.1,-14.6 12,-26.1 29.1,-26.1 7.7,0 14,2.8 17.2,5.5 0.8,0.6 1.3,1.2 0.9,2.3 l 0,0 z"
   inkscape:connector-curvature="0"
   style="fill:#005da6" />

	</g>

	<line
   id="line3002"
   y2="645.40002"
   x2="460.5"
   y1="645.40002"
   x1="53.599998"
   style="fill:none" />

	<line
   id="line3004"
   y2="588.90002"
   x2="457.20001"
   y1="588.90002"
   x1="63"
   style="fill:none" />

	<line
   id="line3006"
   y2="532.5"
   x2="356.20001"
   y1="532.5"
   x1="-37.900002"
   style="fill:none" />

	<g
   id="g3008">
		<g
   id="g3010">
			<path
   id="path3012"
   d="m 261.5,554.6 c 5.9,-3.5 13.9,-1 17.9,5.7 4,6.7 2.5,15 -3.4,18.5 -5.9,3.5 -13.9,1 -17.9,-5.7 -4,-6.7 -2.4,-15 3.4,-18.5 z"
   inkscape:connector-curvature="0"
   style="fill:#005da6" />

		</g>

	</g>

	<path
   id="path3014"
   d="M 337.6,589.4"
   inkscape:connector-curvature="0"
   style="fill:#005da6" />

	<path
   id="path3016"
   d="M 373.4,645.4"
   inkscape:connector-curvature="0"
   style="fill:#005da6" />

	<g
   id="g3018">
		<path
   id="path3020"
   d="m 410.8,594.2 c -0.2,0.6 -0.8,1 -1.4,0.7 -1.7,-0.9 -6.4,-3.2 -9.7,-2.7 -7.2,0.9 -9.7,5.2 -9.7,9.1 0,5.5 1,6.9 7,11.1 7.1,4.9 17.6,8.3 17.6,19.1 0,8.5 -6.8,13.8 -17.2,13.8 -5.2,0 -15.4,-5 -17.4,-7.4 -0.4,-0.5 -0.5,-1.6 -0.1,-2.2 l 0,0 c 0.3,-0.6 0.8,-0.5 1.4,-0.2 1.8,1 7.7,3.9 10,4.4 1.9,0.4 3.5,0.9 7,0.4 3.9,-0.6 7.1,-2.9 7.4,-8.8 0.3,-6.3 -4.6,-11.8 -11.5,-15.4 -6.7,-3.5 -12.6,-6.1 -12.7,-14.4 -0.2,-10 9.2,-12.8 17.9,-12.8 3.9,0 9.1,2.6 10.8,4 0.4,0.2 0.8,0.7 0.6,1.3 l 0,0 z"
   inkscape:connector-curvature="0"
   style="fill:#005da6" />

	</g>

	<path
   id="path3022"
   d="m 331.6,505.4 c -23.7,-14 -59,21.5 -22,43.7 36.9,22.2 52.2,-25.9 22,-43.7 z"
   inkscape:connector-curvature="0"
   style="fill:#005da6" />

	<path
   id="path3024"
   d="m 408,649.5 c 23.6,-7.2 12.1,-28.6 12.1,-28.6 0,0 16.8,21.7 22,28.6"
   inkscape:connector-curvature="0"
   style="fill:#005da6" />

</g>
  </g>
</svg>
